<?xml version="1.0" standalone="no"?>
<!DOCTYPE svg PUBLIC "-//W3C//DTD SVG 20010904//EN"
 "http://www.w3.org/TR/2001/REC-SVG-20010904/DTD/svg10.dtd">
<svg version="1.0" xmlns="http://www.w3.org/2000/svg"
 width="298.000000pt" height="298.000000pt" viewBox="0 0 298.000000 298.000000"
 preserveAspectRatio="xMidYMid meet">
<metadata>
Created by potrace 1.11, written by Peter Selinger 2001-2013
</metadata>
<g transform="translate(0.000000,298.000000) scale(0.100000,-0.100000)"
fill="#000000" stroke="none">
<path d="M11 2956 c-12 -14 -10 -95 4 -156 3 -14 8 -41 10 -60 3 -19 8 -46 12
-60 3 -14 7 -32 9 -40 30 -163 174 -503 291 -688 18 -29 33 -57 33 -62 0 -6 5
-10 10 -10 6 0 10 -5 10 -10 0 -19 196 -275 265 -346 16 -17 48 -51 71 -75 22
-24 78 -79 124 -121 l83 -78 3 -82 c1 -46 6 -150 9 -233 4 -82 7 -168 7 -190
1 -22 6 -46 12 -54 11 -14 157 -86 391 -191 28 -13 109 -50 180 -83 72 -33
141 -60 155 -61 24 -1 25 1 24 69 0 39 -3 113 -7 165 l-6 95 38 -95 c88 -219
122 -286 191 -368 49 -59 149 -142 171 -142 21 0 41 79 40 159 0 19 -10 52
-21 74 -25 47 -22 53 11 27 214 -171 357 -272 451 -315 53 -25 87 -32 89 -17
0 4 2 16 4 27 9 45 -23 144 -96 303 -16 35 -29 70 -29 77 0 8 -4 17 -10 20
-16 10 -12 65 6 72 16 6 26 3 224 -65 160 -55 210 -59 210 -16 0 30 -100 144
-289 328 -105 102 -106 119 -8 117 29 0 63 -3 76 -5 33 -7 132 -18 158 -18 30
-1 53 20 46 40 -33 105 -143 209 -397 376 -77 51 -163 106 -191 122 -78 44
-85 55 -33 50 23 -2 77 -7 118 -11 41 -4 88 -8 105 -10 130 -17 173 -16 182 0
11 19 5 65 -8 65 -5 0 -9 7 -9 15 0 8 -4 23 -10 33 -5 9 -50 114 -100 232 -94
222 -131 305 -165 374 -17 35 -25 41 -55 43 -19 1 -96 4 -170 7 -74 3 -184 8
-244 11 l-110 6 -60 59 c-100 96 -189 171 -276 230 -19 14 -36 28 -38 32 -2 4
-8 8 -12 8 -5 0 -38 18 -72 41 -96 62 -431 221 -493 233 -5 2 -46 14 -91 29
-72 23 -238 65 -319 81 -108 22 -190 34 -265 41 -19 2 -35 4 -35 5 0 0 -43 3
-96 6 -76 4 -99 2 -108 -10z"/>
</g>
</svg>
